<?xml version="1.0" encoding="UTF-8" standalone="no"?>
<!DOCTYPE svg PUBLIC "-//W3C//DTD SVG 1.1//EN" "http://www.w3.org/Graphics/SVG/1.1/DTD/svg11.dtd">
<svg width="100%" height="100%" viewBox="0 0 1779 1762" version="1.1" xmlns="http://www.w3.org/2000/svg" xmlns:xlink="http://www.w3.org/1999/xlink" xml:space="preserve" xmlns:serif="http://www.serif.com/" style="fill-rule:evenodd;clip-rule:evenodd;stroke-linejoin:round;stroke-miterlimit:2;">
    <g transform="matrix(1,0,0,1,-1110.859985,-369.11792)">
        <path d="M2868.7,2125.38C2868.7,2125.38 2544.8,2012.17 2335.69,2012.17L2189.46,1887.96L2119.5,1980.73L2143.87,2006.67C2143.87,2006.67 2091.98,1996.45 2048.74,2000.38C2048.74,2000.38 2184.75,1865.95 2224.05,1704C2263.36,1542.06 2576.25,1370.67 2889.14,1685.14C2889.14,1685.14 2580.97,1218.16 2225.63,1549.92C2225.63,1549.92 2215.8,1491.74 2187.5,1463.44L2133.25,1533.01C2133.25,1533.01 2185.14,1705.18 2077.83,1823.1C1970.52,1941.03 1885.62,2004.71 1885.62,2004.71C1885.62,2004.71 1508.26,2054.23 1325.48,2130.88C1325.48,2130.88 1892.3,1969.72 2868.7,2125.38Z" style="fill:rgb(139,69,19);fill-rule:nonzero;"/>
        <path d="M2080.97,1729.16C2080.97,1729.16 2027.52,1520.04 2183.17,1389.54C2338.83,1259.04 2431.6,1193 2841.97,1215.02C2841.97,1215.02 2771.21,1144.26 2516.5,1139.55C2516.5,1139.55 2604.55,976.026 2541.66,858.104C2541.66,858.104 2552.66,1076.65 2312.1,1183.57C2312.1,1183.57 2390.72,950.87 2142.29,843.953C2142.29,843.953 2285.37,1051.5 2227.2,1174.14C2169.02,1296.78 1999.21,1454.01 1991.35,1554.63C1991.35,1554.63 1705.19,1211.87 1325.48,1666.27C1325.48,1666.27 1876.57,1230.74 2032.23,1820.35L2080.97,1729.16Z" style="fill:rgb(139,69,19);fill-rule:nonzero;"/>
        <path d="M2074.679,1307.78C2074.679,1307.78 1899.44,1168.63 2011.04,935.146C2122.64,701.66 2278.3,543.643 2278.3,543.643C2278.3,543.643 1839.63,795.998 1903.3,1189.86C1903.3,1189.86 1648.59,1073.51 1683.97,843.953C1683.97,843.953 1580.2,1001.18 1704.01,1141.51C1704.01,1141.51 1523.59,1101.42 1375.01,1218.16C1375.01,1218.16 1839.63,1153.3 2023.58,1379.72L2074.679,1307.78Z" style="fill:rgb(139,69,19);fill-rule:nonzero;"/>
        <path d="M1957.55,1379.72C1957.55,1416.62 1927.63,1446.54 1890.73,1446.54C1853.82,1446.54 1823.9,1416.62 1823.9,1379.72C1823.9,1342.81 1853.82,1312.89 1890.73,1312.89C1927.63,1312.89 1957.55,1342.81 1957.55,1379.72Z" style="fill:rgb(139,69,19);fill-rule:nonzero;"/>
        <path d="M2190.41,1144.34C2190.41,1181.24 2160.5,1211.16 2123.59,1211.16C2086.69,1211.16 2056.77,1181.24 2056.77,1144.34C2056.77,1107.43 2086.69,1077.51 2123.59,1077.51C2160.5,1077.51 2190.41,1107.43 2190.41,1144.34Z" style="fill:rgb(139,69,19);fill-rule:nonzero;"/>
        <path d="M2739,1040.22C2739,1077.13 2709.08,1107.05 2672.17,1107.05C2635.27,1107.05 2605.35,1077.13 2605.35,1040.22C2605.35,1003.32 2635.27,973.401 2672.17,973.401C2709.08,973.401 2739,1003.32 2739,1040.22Z" style="fill:rgb(139,69,19);fill-rule:nonzero;"/>
        <path d="M1608.74,1047.95C1608.74,1084.85 1578.82,1114.77 1541.91,1114.77C1505.01,1114.77 1475.09,1084.85 1475.09,1047.95C1475.09,1011.04 1505.01,981.123 1541.91,981.123C1578.82,981.123 1608.74,1011.04 1608.74,1047.95Z" style="fill:rgb(139,69,19);fill-rule:nonzero;"/>
        <path d="M1847.09,1595.91C1847.09,1595.91 1922.17,1718.74 1805.43,1846.69C1805.43,1846.69 1721.31,1717.17 1847.09,1595.91Z" style="fill:rgb(184,134,11);fill-rule:nonzero;"/>
        <path d="M1800.71,1567.8C1800.71,1567.8 1544.23,1512.38 1408.62,1749.99C1408.62,1749.99 1678.69,1814.56 1800.71,1567.8Z" style="fill:rgb(184,134,11);fill-rule:nonzero;"/>
        <path d="M1135.63,1488.2C1135.63,1488.2 1285.98,1275.35 1548.36,1369.69C1548.36,1369.69 1355.36,1591.58 1135.63,1488.2Z" style="fill:rgb(184,134,11);fill-rule:nonzero;"/>
        <path d="M1500.01,1248.03C1500.01,1248.03 1654.09,1227.59 1713.05,1376.18C1713.05,1376.18 1581.77,1414.7 1500.01,1248.03Z" style="fill:rgb(184,134,11);fill-rule:nonzero;"/>
        <path d="M1110.86,1236.24C1110.86,1236.24 1249.23,1144.26 1387.59,1281.05C1387.59,1281.05 1214.64,1354.95 1110.86,1236.24Z" style="fill:rgb(184,134,11);fill-rule:nonzero;"/>
        <path d="M1780.66,777.916C1780.66,777.916 1926.89,898.591 1826.65,1070.76C1826.65,1070.76 1700.48,961.483 1780.66,777.916Z" style="fill:rgb(184,134,11);fill-rule:nonzero;"/>
        <path d="M1461.09,627.369C1461.09,627.369 1619.22,712.788 1563.69,909.203C1563.69,909.203 1408.03,820.762 1461.09,627.369Z" style="fill:rgb(184,134,11);fill-rule:nonzero;"/>
        <path d="M1594.35,535.389C1594.35,535.389 1748.82,587.668 1735.85,777.916C1735.85,777.916 1575.48,701.66 1594.35,535.389Z" style="fill:rgb(184,134,11);fill-rule:nonzero;"/>
        <path d="M1919.81,369.118C1919.81,369.118 2093.7,585.718 1945.76,811.328C1945.76,811.328 1762.98,608.501 1919.81,369.118Z" style="fill:rgb(184,134,11);fill-rule:nonzero;"/>
        <path d="M2178.06,437.513C2178.06,437.513 2204.01,593.957 2063.679,656.652C2063.679,656.652 2033.02,514.556 2178.06,437.513Z" style="fill:rgb(184,134,11);fill-rule:nonzero;"/>
        <path d="M2244.49,656.652C2244.49,656.652 2365.56,732.32 2298.74,902.914C2298.74,902.914 2180.03,803.466 2244.49,656.652Z" style="fill:rgb(184,134,11);fill-rule:nonzero;"/>
        <path d="M2482.7,632.478C2482.7,632.478 2607.3,889.157 2385.61,1062.5C2385.61,1062.5 2267.29,823.906 2482.7,632.478Z" style="fill:rgb(184,134,11);fill-rule:nonzero;"/>
        <path d="M2468.15,1323.11C2468.15,1323.11 2687.49,1200.47 2889.14,1397.4C2889.14,1397.4 2633.25,1518.86 2468.15,1323.11Z" style="fill:rgb(184,134,11);fill-rule:nonzero;"/>
        <path d="M2444.57,1562.19C2444.57,1562.19 2637.96,1490.56 2774.75,1681.6C2774.75,1681.6 2553.06,1757.64 2444.57,1562.19Z" style="fill:rgb(184,134,11);fill-rule:nonzero;"/>
        <path d="M2344.33,1595.91C2344.33,1595.91 2488.2,1600.23 2538.91,1749.99C2538.91,1749.99 2385.61,1755.5 2344.33,1595.91Z" style="fill:rgb(184,134,11);fill-rule:nonzero;"/>
        <path d="M2396.22,1280.66C2396.22,1280.66 2254.71,1310.89 2253.53,1476.41C2253.53,1476.41 2397.4,1444.57 2396.22,1280.66Z" style="fill:rgb(184,134,11);fill-rule:nonzero;"/>
    </g>
</svg>
