<?xml version="1.0" encoding="UTF-8" standalone="no"?>
<!DOCTYPE svg PUBLIC "-//W3C//DTD SVG 1.1//EN" "http://www.w3.org/Graphics/SVG/1.1/DTD/svg11.dtd">
<svg width="100%" height="100%" viewBox="0 0 90 72" version="1.1" xmlns="http://www.w3.org/2000/svg" xmlns:xlink="http://www.w3.org/1999/xlink" xml:space="preserve" xmlns:serif="http://www.serif.com/" style="fill-rule:evenodd;clip-rule:evenodd;stroke-linejoin:round;stroke-miterlimit:2;">
    <g transform="matrix(1,0,0,1,-4,-9.5)">
        <g>
            <g transform="matrix(1,0,0,1,-1,1)">
                <path d="M78.4,37C78.4,37 80,36.2 80.1,36.1C80.6,35.8 81.1,35.6 81.7,35.4C83.2,34.8 84.7,34.4 86,34.3C87.4,34.2 88.7,34.4 89.8,34.8C90.9,35.2 91.8,35.8 92.6,36.2C94,37 95,37.3 95,37.3C95,37.3 94.1,36.8 92.8,35.7C92.1,35.2 91.3,34.5 90.2,33.9C89.1,33.3 87.7,32.8 86.1,32.6C84.7,32.5 83.3,32.6 81.8,32.9C82.1,32.1 82.3,31.3 82.5,30.5C83,28.8 83.7,27.2 84.6,26.3C85,25.8 85.5,25.5 85.9,25.5L86.5,25.5C86.5,25.5 86.3,25.3 85.9,25.3C85.5,25.3 84.9,25.5 84.3,25.9C83.7,26.3 83.1,26.9 82.6,27.6C82.1,28.3 81.6,29.1 81.2,29.9C80.8,30.7 80.3,31.5 79.9,32.2C79.5,32.8 79.1,33.4 78.7,33.7C77.7,34 76.7,34.4 75.8,34.9C74,35.7 72.3,36.4 70.6,37.1C69.7,37.4 68.9,37.6 68.1,37.8C67.9,37.8 67.7,37.9 67.5,37.9L65.7,37.9C65.1,37.9 64.4,37.8 63.8,37.7C63.6,37.5 63.5,37.3 63.3,37.1C63.3,36.7 63.2,36.3 63.1,35.8C62.7,33.3 61.948,31.012 61.648,29.412C61.248,27.812 61.577,29.338 61.377,27.838C61.201,26.482 61.769,22.621 60.357,18.616C59.317,15.664 60.3,9.115 60.3,8.5L46.4,8.5C46.4,8.699 46.883,11.627 46.858,14.509C46.833,17.427 46.3,20.299 46.3,20.4C46,21.7 45.6,23.1 45.3,24.9C45,26.6 44.9,28.3 44.6,29.9C44.5,30.7 44.3,31.4 44.1,32.1C44,32.5 43.8,32.9 43.5,33.3L43.4,33.4C42.7,34 41.9,34.4 40.6,34.7C39.7,34.9 38.9,35.1 38.1,35.2C37.7,35.2 37.3,35.3 36.9,35.3L36.2,35.3C36.2,35.3 36.1,35.3 36.2,35.3L35.7,35.3C34.2,35.1 32.3,34.5 30.5,33.8C29.8,33.5 29.1,33.3 28.4,33L28.2,31.4L28,30.2L27.9,29.7C27.9,29.4 27.8,29.3 27.8,29.1C27.8,28.9 27.7,28.7 27.6,28.5C27.5,28.3 27.5,28.1 27.3,27.9C27.2,27.8 27,27.5 26.9,27.4C26.7,27.2 26.6,27.1 26.4,27C25.7,26.5 24.2,26.2 24.2,26.2L24.1,26.2C24,26.2 24,26.2 23.9,26.3L24.3,26.3C24.9,26.7 25.5,27.1 25.9,27.7C26,27.8 26.1,28 26.1,28.1C26.2,28.3 26.2,28.3 26.2,28.5L26.2,29.4C26.2,29.5 26.2,29.8 26.1,29.9L26,30.1L25.8,31.2L25.6,32.1C25.2,32 24.8,31.9 24.4,31.9C22.3,31.5 20,31.7 18.3,32.6C18,32.8 17.4,33 17.4,33C17.4,33 16.9,33 16.1,32.9C15.7,32.9 15.3,32.8 14.9,32.7C14.7,32.7 14.5,32.6 14.2,32.5C14.2,32.5 14.1,32.5 14.3,32.5L14.2,32.5L13.6,32.2C13.4,32.1 13.1,32 12.9,31.8C12.8,31.7 12.6,31.7 12.6,31.6C12.5,31.5 12.4,31.5 12.3,31.4C11.9,31.1 11.4,30.9 11.1,30.7C10.4,30.3 9.9,30 9.9,30C9.9,30 10.3,30.4 10.8,31C11.1,31.3 11.4,31.7 11.7,32.1L13.4,33.8L13.5,33.8C13.7,34 14,34.2 14.2,34.3C14.4,34.4 14.6,34.5 14.8,34.6C14.6,34.8 14.4,34.9 14.2,35C13,35.9 11.8,36.4 10.7,36.7C9.5,37 8.5,37.2 7.6,37.2C6.7,37.3 6.1,37.1 5.7,36.8C5.5,36.7 5.4,36.5 5.3,36.4C5,36.8 5,36.7 5,36.7C5,36.7 5.1,37 5.4,37.3C5.8,37.6 6.5,37.9 7.4,38C8.3,38.1 9.4,38 10.7,38C12,37.9 13.5,37.4 14.9,36.7C15.5,36.4 18.4,35 19.2,34.7C20.7,34.3 22.2,34.4 23.8,34.9C25.4,35.4 27,36.3 28.7,37.3C30.3,38.2 32,39.2 34.2,39.9C33.7,40.3 33.2,40.7 32.7,41.1C32.5,41.3 32.2,41.6 32,41.9C31.7,42.2 31.6,42.5 31.4,42.8C31.1,43.4 30.8,43.9 30.6,44.4L30.3,45.2L30.2,45.6L30.2,45.8C30,45.9 29.8,46 29.5,46C28.5,46.4 27.4,46.8 26.1,47.3C25.9,47.3 25.7,47.4 25.5,47.4C21.9,47.9 18.3,48.1 18.3,48.1C18.3,48.1 20.3,48.4 22.9,48.7C21.9,49.1 21,49.5 20.1,50C19.1,50.5 18.1,50.9 17.3,51.5C16.6,52.1 16.2,52.8 16,53.3C15.8,53.8 15.9,54.1 15.9,54.1C15.9,54.1 15.9,53.8 16.1,53.3C16.3,52.8 16.8,52.2 17.5,51.8C18.2,51.4 19.2,51.1 20.3,50.8C21.4,50.5 22.5,50.2 23.7,49.9C25,49.6 26.2,49.3 27.4,49.1C28,49.1 28.5,49.2 29,49.2C28.7,50.1 28.4,50.9 28.2,51.8C28,52.3 27.9,52.8 27.7,53.2C27.6,53.6 27.4,54.1 27.3,54.5C27.1,55 27,55.6 26.8,56.1C26.7,56.2 26.6,56.3 26.5,56.4C26.2,56.7 25.8,56.9 25.3,57C24.8,57.1 24.3,57.2 23.8,57.3C23.3,57.3 22.9,57.3 22.5,57.1C22.1,57 21.8,56.8 21.6,56.7C21.4,56.6 21.3,56.5 21.3,56.5C21.3,56.5 21.4,56.6 21.6,56.7C21.8,56.9 22,57.1 22.4,57.3C22.7,57.5 23.2,57.7 23.8,57.8C24.3,57.9 24.9,57.9 25.5,57.9C25.6,57.9 25.8,57.9 25.9,57.8C25.3,58.8 24.5,59.5 23.6,60C22.3,60.8 21,61.2 19.8,61.4C18.6,61.7 17.5,61.8 16.6,61.9C14.8,62.1 13.8,62.1 13.8,62.1C13.8,62.1 14.8,62.2 16.6,62.4C17.5,62.5 18.6,62.5 19.9,62.4C21.2,62.3 22.7,62.1 24.2,61.5C25.8,60.9 27.4,59.6 28.4,58C28.9,57.2 29.4,56.3 29.8,55.4C30,55 30.2,54.5 30.4,54.1C30.6,53.7 30.8,53.3 31,52.9C31.9,51.2 32.8,49.4 33.7,47.5L33.8,47.3C33.8,47.2 33.8,47.4 33.8,47.4L33.8,47.3L34.4,46.4C34.6,46 34.9,45.7 35.1,45.4C35.2,45.3 35.4,45.1 35.5,45C35.6,44.9 35.8,44.8 35.9,44.7C36.2,44.5 36.5,44.3 36.9,44.2C37.6,43.9 38.5,43.5 39.5,43.1L40.3,42.8L41.1,42.4C41.6,42.2 42.1,41.9 42.6,41.6C43.6,41.1 44.5,40.6 45.4,40.1C45.8,39.8 46.3,39.6 46.7,39.3C47.1,39 47.5,38.7 48,38.4C47.6,39 47.3,39.7 46.9,40.4C46.4,41.3 45.8,42.3 45.3,43.4C45.2,43.7 45,44 44.9,44.2L44.6,45C44.4,45.6 44.2,46.1 44,46.6C43.3,48.8 42.9,50.8 42.5,53C42.1,55.1 41.8,57.4 42.1,59.6C42.1,59.8 42.2,60.1 42.2,60.3C42.1,60.6 42,61 41.9,61.4C41.6,62.5 41.2,63.9 40.5,65.1C40.3,65.4 40.1,65.7 39.9,66C39.7,66.3 39.4,66.5 39.2,66.7C38.9,66.9 38.7,67.1 38.4,67.2C38.1,67.3 37.8,67.4 37.6,67.5C37.1,67.6 36.6,67.7 36.2,67.7C35.9,67.7 35.7,67.8 35.7,67.8C35.7,67.8 35.9,67.8 36.2,67.9C36.5,67.9 37,68 37.6,68C37.9,68 38.2,68 38.6,67.9C39,67.8 39.3,67.7 39.7,67.6C40.1,67.4 40.4,67.2 40.8,67C41.1,66.8 41.5,66.5 41.8,66.2C42.4,65.6 42.9,64.9 43.3,64.3C43.4,64.7 43.6,65.2 43.7,65.6C44.3,67.3 45,68.9 45.4,70.4C45.9,71.9 46.2,73.2 46.4,74.5C46.6,75.7 46.6,76.8 46.5,77.7C46.4,78.6 46.2,79.3 46.1,79.8C45.9,80.3 45.8,80.5 45.8,80.5C45.8,80.5 45.9,80.3 46.2,79.8C46.4,79.4 46.7,78.7 47,77.8C47.2,76.9 47.4,75.7 47.4,74.4C47.4,73.1 47.3,71.6 47,70C46.7,68.4 46.3,66.7 46,65C45.7,63.3 45.4,61.4 45.4,59.7C45.4,57.9 45.9,56.1 46.6,54.3C46.7,54.1 46.8,53.8 46.9,53.6C47.3,54 47.8,54.4 48.2,54.9C48.5,55.2 48.8,55.6 49.1,56C49.4,56.4 49.7,56.8 50,57.2C51.1,58.9 51.6,60.9 51.6,62.4C51.6,63.2 51.4,63.8 51.2,64.2C51,64.6 50.7,64.7 50.7,64.7C50.7,64.7 50.8,64.7 50.9,64.6C51,64.5 51.2,64.4 51.3,64.2C51.6,63.8 51.9,63.2 52,62.4C52.4,60.8 52.2,58.5 51.3,56.5C51.1,56 50.9,55.5 50.6,55C50.3,54.5 50.1,54.1 49.8,53.6C49.2,52.7 48.7,52 48.2,51.3C48.1,51.2 48,51 47.9,50.9C48.2,50.1 48.5,49.4 48.9,48.7C49.7,46.9 50.7,45.6 52,44C52.7,43.1 53.5,42.1 54.3,41C54.4,41.1 54.5,41.3 54.6,41.4C55.3,42.4 57.2,45.9 57.3,46.3C57.5,47 57.7,47.7 58,48.4L58.2,48.6L58.5,49.2C58.6,49.4 58.7,49.5 58.9,49.7C59,50.5 58.9,51.2 58.8,51.8C58.6,52.6 58.3,53.2 58.1,53.6C57.8,54 57.6,54.2 57.6,54.2C57.6,54.2 57.8,54.1 58.2,53.7C58.6,53.4 59,52.8 59.4,52C59.6,51.6 59.7,51.2 59.9,50.7C60.7,51.5 61.5,52.1 62.4,52.6C63.4,53.2 64.4,53.7 65.4,54.1C66.4,54.5 68.3,56.1 68.3,56.4C68.5,57 68.7,57.7 68.9,58.5C69,58.9 69,59.2 69,59.5C69,59.7 69,59.8 68.9,60C68.9,60.1 68.7,60.3 68.6,60.5C68.3,60.9 67.9,61.3 67.5,61.7C67.1,62.1 66.7,62.5 66.2,63C65.3,63.8 64.4,64.6 63.5,65.3C62.6,66 61.8,66.6 61,67.2C60.3,67.8 59.9,68.6 59.8,69.1L59.8,69.7C59.8,69.8 59.9,69.9 59.9,69.9L59.9,69.1C60,68.6 60.5,68 61.2,67.5C62,67.1 63,66.6 63.9,66C64.9,65.4 66,64.8 67,64.1C67.5,63.7 68,63.4 68.5,63C69,62.6 69.5,62.3 70,61.8C70.2,61.6 70.5,61.3 70.7,60.9C70.9,60.6 71,60.2 71.1,59.9C71.2,59.6 71.2,59.2 71.3,58.9C71.5,59.5 71.8,60.2 72.2,61C72.6,61.8 73.6,64.7 73.6,65.2C73.4,66.7 73,68.1 72.7,69.4C72.4,70.7 72.2,71.8 72.3,72.8C72.3,73.3 72.3,73.7 72.4,74.1C72.4,74.5 72.6,74.8 72.8,75C73,75.2 73.2,75.3 73.3,75.2C73.4,75.1 73.4,75.1 73.5,75.1C73.5,75.1 73.5,75.2 73.3,75.2C73.2,75.2 73,75.1 72.9,75C72.6,74.6 72.6,73.9 72.7,73C72.8,72.1 73.1,71.1 73.6,69.9C74,68.7 74.7,67.4 75.1,65.9C75.5,66.4 76,67 76.5,67.5C77,68 77.5,68.5 78,68.9C78.5,69.3 79,69.7 79.5,70.1C80,70.5 80.3,70.8 80.6,71.3C80.9,71.8 81.1,72.2 81.2,72.7C81.5,73.6 81.5,74.4 81.5,75C81.5,75.6 81.4,75.9 81.4,75.9C81.4,75.9 81.5,75.6 81.7,75C81.8,74.4 81.9,73.6 81.7,72.6C81.6,72.1 81.5,71.6 81.3,71C81.1,70.4 80.7,69.9 80.2,69.4C79.8,68.9 79.3,68.5 78.9,68C78.5,67.5 78.1,67 77.7,66.5C76.9,65.4 76.2,64.2 75.7,63C75.7,62.1 75.7,61.2 75.4,60.3C74.9,58.3 73.9,56.4 72.4,54.8C72,54.4 71.7,54 71.2,53.6C70.8,53.2 70.3,52.8 69.9,52.5C69,51.8 68.1,51.2 67.2,50.7C65.5,49.6 63.9,48.5 63.2,47.3C63.1,47.1 63.1,47.1 63,47L62.9,46.7L62.8,46.5C62.8,46.5 62.9,46.7 62.9,46.6L62.9,46.5C62.8,46.2 62.8,45.9 62.7,45.5L62.7,44.3C62.8,44.4 62.9,44.4 63.1,44.5C63.4,44.6 63.7,44.8 64,44.9L64.5,45.1L64.9,45.2C65.6,45.4 66.2,45.5 66.9,45.6C68.2,45.7 69.4,45.7 70.5,45.5C71.7,45.4 72.6,45.1 73.5,45C75.1,44.8 76.9,45.1 78.6,45.7C78.8,45.7 78.9,45.8 79.1,45.9L79,46L79.1,46.1C79.2,46.2 79.2,46.1 79.3,46.2C79.5,46.3 79.7,46.5 79.9,46.9C80,47.1 80.1,47.3 80.2,47.6C80.2,47.7 80.3,47.9 80.3,48L80.3,48.5C80.3,49.2 80.2,50 80.1,50.8C79.9,51.6 79.7,52.5 79.6,53.3C79.5,54.1 79.4,54.9 79.5,55.6C79.6,56.3 79.8,56.8 80,57.1C80.2,57.4 80.3,57.6 80.3,57.6C80.3,57.6 80.2,57.4 80.1,57.1C80,56.8 79.9,56.2 80,55.6C80,55 80.2,54.3 80.5,53.6C80.8,52.9 81.2,52.1 81.5,51.3C81.9,50.5 82.2,49.6 82.4,48.7C82.4,48.6 82.4,48.5 82.5,48.3L82.5,47.7C82.7,47.8 82.9,48 83.1,48.1C84.4,49.1 85.3,50.3 85.9,51.6C86.5,52.9 86.7,54.3 87,55.5C87.3,56.7 87.7,57.8 88.3,58.6C88.6,59 89,59.2 89.4,59.3C89.8,59.4 90.1,59.3 90.3,59.1C90.7,58.8 90.7,58.5 90.7,58.5C90.7,58.5 90.7,58.8 90.2,59C90,59.1 89.7,59.1 89.4,59C89.1,58.9 88.8,58.6 88.6,58.3C88.2,57.6 88,56.5 87.8,55.3C87.7,54.1 87.7,52.6 87.2,51C86.8,49.4 85.8,47.7 84.5,46.3C83.2,44.9 81.5,43.7 79.6,42.7C77.8,41.8 75.7,40.9 73.2,40.9L72.5,40.9C74.2,40 75.7,38.9 77.2,38C77.6,37.5 78,37.2 78.4,37Z" style="fill-rule:nonzero;"/>
            </g>
        </g>
    </g>
</svg>
