<?xml version="1.0" encoding="UTF-8" standalone="no"?>
<!DOCTYPE svg PUBLIC "-//W3C//DTD SVG 1.1//EN" "http://www.w3.org/Graphics/SVG/1.1/DTD/svg11.dtd">
<svg width="100%" height="100%" viewBox="0 0 355 233" version="1.1" xmlns="http://www.w3.org/2000/svg" xmlns:xlink="http://www.w3.org/1999/xlink" xml:space="preserve" xmlns:serif="http://www.serif.com/" style="fill-rule:evenodd;clip-rule:evenodd;stroke-linejoin:round;stroke-miterlimit:2;">
    <g transform="matrix(1,0,0,1,-57.145383,-75.746104)">
        <path d="M180.479,247.451C177.512,259.192 175.274,270.724 171.112,281.672C169.229,281.231 169.161,280.251 169.447,279.219C172.696,267.477 173.03,255.238 175.569,243.378C178.624,229.11 184.34,216.466 197.334,208.389C200.949,206.142 199.613,203.218 198.441,200.491C195.358,193.314 191.239,186.609 188.991,179.036C188.164,176.248 188.19,173.061 185.816,170.58C182.431,171.448 180.199,174.006 177.687,176.087C167.534,184.494 161.158,195.699 155.744,207.326C146.817,226.497 131.112,236.966 111.836,243.109C108.049,244.317 104.541,246.965 99.54,246.456C101.171,244.002 103.387,243.612 105.17,242.715C112.013,239.272 118.91,235.952 125.261,231.605C136.301,224.05 143.264,213.543 147.619,201.111C151.212,190.854 155.506,180.961 162.03,172.151C165.735,167.148 170.119,162.845 175.046,159.101C181.964,153.843 186.32,147.081 188.305,138.575C190.224,130.352 193.305,122.482 197.149,115.047C195.083,113.558 193.498,114.312 191.908,114.71C172.835,119.486 158.635,131.046 149.452,147.914C143.262,159.284 135.448,168.293 124.63,175.194C115.643,180.928 108.4,188.465 104.346,198.626C103.996,199.503 103.674,200.552 102.009,200.876C102.571,191.197 108.055,184.285 113.898,177.557C119.668,170.914 127.592,166.476 132.718,158.838C108.433,168.712 81.309,165.799 57.513,176.987C56.412,174.638 58.056,174.445 58.888,173.934C65.323,169.983 72.273,167.234 79.546,165.263C87.896,163.001 96.184,160.478 104.603,158.518C122.64,154.318 137.176,145.252 146.715,129.045C156.646,112.172 172.084,102.477 189.957,96.264C196.614,93.949 226.654,87.769 228.855,81.472C231.785,73.092 244.156,74.506 248.166,81.855C252.397,89.611 284.244,102.871 293.214,102.661C298.564,102.535 303.813,103.523 309.012,104.684C316.93,106.453 324.859,106.107 332.847,105.231C342.543,104.167 351.639,106.404 360.462,110.423C368.618,114.138 376.501,118.572 385.48,120.299C387.554,120.698 389.835,119.976 392.208,121.656C387.765,123.758 383.6,123.194 379.435,122.249C372.281,120.627 365.404,118.095 358.425,115.885C351.322,113.636 344.102,111.655 336.005,114.059C352.024,130.216 367.007,146.949 392.006,147.336C386.463,150.697 380.905,149.291 375.512,148.362C362.205,146.069 350.728,139.91 340.531,131.169C329.028,121.309 315.325,118.152 300.581,118.308C299.611,118.319 298.543,118.18 297.383,119.88C301.092,126.22 304.995,132.892 308.898,139.565C317.975,155.081 332.028,163.236 349.016,167.755C362,171.209 375.234,174.17 387.121,180.995C392.247,183.938 396.822,187.378 400.656,191.882C403.889,195.682 407.384,199.236 411.999,201.247C411.484,203.265 410.233,203.184 409.181,202.63C406.834,201.396 404.213,200.342 402.378,198.531C391.428,187.722 377.92,182.768 363.041,180.8C352.682,179.43 342.339,177.962 332.084,175.766C330.398,178.876 331.742,181.278 332.922,183.587C336.067,189.739 340.359,195.097 345.434,199.699C362.031,214.75 366.242,233.876 364.128,255.173C364.069,255.768 363.687,256.331 362.884,256.979C360.462,245.503 360.973,233.417 354.895,222.84C348.832,212.287 338.723,206.053 329.761,197.484C328.309,204.212 330.196,209.58 331.75,214.915C333.978,222.559 337.26,229.885 337.903,237.989C338.24,242.252 337.701,246.292 336.297,250.232C335.795,251.642 335.545,253.619 333.043,253.62C332.587,250.506 334.485,247.875 334.67,244.945C335.089,238.3 333.719,231.937 331.012,226.005C326.253,215.573 323.299,205.02 323.364,193.295C323.425,182.344 319.313,172.424 310.033,165.512C297.921,156.49 289.784,143.982 280.672,132.315C275.336,125.482 269.378,119.303 260.806,114.936C261.106,118.023 263.033,119.241 264.388,120.658C282.424,139.523 287.676,162.062 284.679,187.47C282.138,209.018 281.182,230.669 288.26,251.739C292.073,263.091 297.905,273.272 306.43,281.837C309.833,285.255 313.034,288.886 316.158,292.564C317.256,293.856 318.76,295.18 318.305,297.63C315.29,297.07 314.256,294.298 312.508,292.622C302.928,283.433 292.534,275.004 286.217,262.832C278.345,247.663 274.441,231.533 272.641,214.647C271.172,200.863 272.983,187.069 271.747,173.319C271.592,171.601 272.094,169.689 270.203,167.876C266.108,177.446 259.865,185.362 261.855,196.987C263.834,208.548 260.253,220.045 255.237,230.825C250.43,241.153 245.992,251.622 250.003,263.421C250.163,263.892 249.708,264.573 249.387,265.688C246.217,262.788 245.989,259.324 245.709,255.986C244.9,246.321 247.016,237.141 250.428,228.159C253.838,219.182 255.371,209.869 254.792,200.254C254.715,198.976 255.054,197.561 253.275,195.803C242.117,208.625 231.658,221.554 229.147,239.289C226.964,235.782 227.619,232.272 228.116,228.823C229.62,218.383 234.687,209.323 239.507,200.209C242.932,193.734 246.763,187.475 250.348,181.084C256.385,170.322 258.726,158.748 258.011,146.463C257.724,141.533 255.924,137.292 252.391,134.027C246.155,128.264 239.634,122.811 233.291,117.162C230.865,115.002 228.674,114.891 226.33,117.246C224.458,119.128 222.273,120.724 220.548,122.724C218.029,125.643 217.416,128.982 219.747,132.365C226.61,142.331 227.792,153.736 227.719,165.303C227.686,170.437 229.042,175.127 230.239,179.943C230.571,181.282 231.868,182.605 229.871,184.64C225.88,180.018 224.598,174.32 223.059,168.923C221.24,162.542 220.318,155.91 218.663,149.475C217.536,145.094 215.223,141.288 211.374,138.611C208.811,140.005 208.499,142.459 207.765,144.59C202.064,161.15 204.134,177.414 210.03,193.404C214.357,205.14 219.237,217.009 220.194,229.313C221.106,241.036 223.73,251.22 230.855,260.495C232.444,262.563 233.073,265.828 233.108,268.555C233.283,282.354 232.378,296.31 242.515,308.088C239.522,309.018 238.838,307.405 238.098,306.323C232.558,298.216 228.582,289.588 228.655,279.443C228.684,275.474 228.111,271.479 227.547,267.533C226.885,262.9 224.407,259.848 220.108,257.771C218.975,259.049 200.432,304.171 199.5,308.266C198.05,303.792 198.299,300.022 199.189,296.213C201.396,286.769 206.077,278.171 208.563,268.831C212.68,253.362 213.372,237.952 207.287,222.77C204.584,216.027 203.116,215.753 197.242,220.356C188.447,227.25 184.027,236.843 180.479,247.451Z" style="fill-rule:nonzero;"/>
    </g>
</svg>
