<?xml version="1.0" encoding="UTF-8" standalone="no"?>
<!DOCTYPE svg PUBLIC "-//W3C//DTD SVG 1.1//EN" "http://www.w3.org/Graphics/SVG/1.1/DTD/svg11.dtd">
<svg width="100%" height="100%" viewBox="0 0 801 836" version="1.1" xmlns="http://www.w3.org/2000/svg" xmlns:xlink="http://www.w3.org/1999/xlink" xml:space="preserve" xmlns:serif="http://www.serif.com/" style="fill-rule:evenodd;clip-rule:evenodd;stroke-linejoin:round;stroke-miterlimit:2;">
    <g transform="matrix(1,0,0,1,-20.962672,-40.910423)">
        <path d="M20.963,341.437C20.96,334.632 21.056,328.278 21.059,321.464C22.085,307.984 23.204,294.965 24.435,281.165C25.681,274.251 26.816,268.118 28.176,261.703C30.357,254.65 32.312,247.88 34.503,240.846C37.072,234.12 39.405,227.656 41.926,221.069C42.302,220.672 42.33,220.384 42.462,219.86C45.775,212.85 48.824,206.061 52.125,199.084C55.148,193.71 57.921,188.523 60.836,183.202C60.987,182.815 61.026,182.567 61.276,182.204C61.458,182.084 61.665,181.699 61.915,181.476C66.473,174.515 70.781,167.776 75.378,160.876C77.455,158.164 79.241,155.612 81.335,152.92C84.716,148.836 87.79,144.891 91.147,140.764C94.602,137.013 97.774,133.443 101.261,129.768C104.336,126.757 107.097,123.85 110.162,120.796C113.963,117.355 117.461,114.06 121.279,110.687C125.242,107.493 128.885,104.377 132.839,101.164C135.762,99.032 138.373,96.995 141.325,94.908C148.291,90.434 154.916,86.011 161.869,81.466C168.451,77.844 174.706,74.346 181.32,70.832C188.263,67.733 194.847,64.649 201.78,61.553C202.748,61.228 203.366,60.915 204.261,60.647C205.007,60.406 205.474,60.12 206.309,59.833C211.498,57.999 216.32,56.165 221.541,54.349C228.339,52.42 234.739,50.472 241.562,48.541C248.322,47.022 254.66,45.486 261.419,44.007C265.896,43.381 269.95,42.697 274.436,42.092C276.899,41.992 278.931,41.812 281.397,41.719C288.228,41.482 294.623,41.157 301.48,40.91C308.294,40.993 314.647,40.998 321.387,41.148C334.856,42.352 347.938,43.413 361.407,44.659C368.192,45.906 374.592,46.967 381.263,48.282C388.027,50.316 394.52,52.097 401.31,54.096C408.045,56.624 414.484,58.934 421.081,61.497C421.804,61.887 422.371,62.023 423.161,62.42C429.21,65.291 435.036,67.903 441.083,70.755C447.549,74.305 453.793,77.613 460.207,81.162C460.914,81.615 461.451,81.827 462.136,82.344C468.536,86.655 474.791,90.662 481.262,94.938C484.252,97.17 487.025,99.133 489.937,101.407C493.697,104.524 497.317,107.331 501.088,110.433C505.126,114.167 509.015,117.606 513.01,121.364C515.726,124.165 518.333,126.647 521.066,129.436C524.741,133.52 528.29,137.298 531.926,141.408C534.986,145.208 537.958,148.675 541.02,152.465C543.294,155.577 545.477,158.365 547.747,161.497C552.176,168.265 556.52,174.689 560.928,181.46C564.895,188.727 568.799,195.647 572.761,202.908C575.473,208.755 578.126,214.261 580.705,220.026C580.949,220.903 581.267,221.52 581.625,222.517C583.966,228.983 586.268,235.067 588.603,241.557C590.132,247.246 591.863,252.478 593.074,257.827C595.566,268.839 597.781,279.914 600.049,291.37C600.203,292.838 600.419,293.898 600.547,295.218C600.645,295.982 600.832,296.488 600.966,297.349C601.167,298.853 601.42,300.001 601.658,301.524C608.029,304.414 614.415,306.927 621.045,309.701C627.415,312.042 633.541,314.123 639.899,316.481C653.737,323.217 667.343,329.675 681.13,336.412C683.806,338.161 686.302,339.631 688.964,341.399C693.021,344.273 696.912,346.85 700.986,349.696C707.781,355.218 714.394,360.471 721.155,366.038C732.773,377.936 744.243,389.521 755.809,401.44C760.972,408.177 766.038,414.58 771.168,421.318C774.4,426.28 777.568,430.906 780.817,435.845C781.957,437.763 783.016,439.37 784.097,441.328C790.539,454.83 796.958,467.979 803.434,481.519C805.848,488.328 808.205,494.746 810.563,501.164C813.595,514.213 816.627,527.262 819.86,540.65C820.319,547.368 820.576,553.748 820.947,560.561C821.03,567.36 821.001,573.725 821.064,580.553C821.092,587.365 821.029,593.716 821.055,600.527C820.933,607.399 820.723,613.811 820.489,620.968C820.502,622.485 820.539,623.256 820.576,624.026C820.385,626.406 820.194,628.785 819.924,631.819C819.842,633.335 819.84,634.195 819.837,635.055C819.59,636.389 819.343,637.723 818.962,639.748C815.112,653.924 811.396,667.408 807.44,681.147C801.556,694.52 795.913,707.638 790.023,720.954C781.566,734.449 773.355,747.747 764.863,761.214C763.34,763.156 762.098,764.93 760.544,766.845C756.474,771.652 752.717,776.317 748.658,781.121C745.85,784.061 743.344,786.862 740.517,789.779C736.503,793.612 732.81,797.33 728.803,801.161C726.003,803.592 723.52,805.909 720.716,808.306C715.26,812.589 710.124,816.792 704.68,821.073C703.234,822.065 702.096,822.978 700.612,823.949C687.138,831.88 674.009,839.752 660.508,847.675C650.766,851.841 641.397,855.958 631.664,860.063C630.208,860.547 629.115,861.042 627.709,861.502C626.654,861.831 625.913,862.194 624.85,862.537C623.354,863.028 622.18,863.54 620.624,864.029C613.825,866.026 607.409,868.048 600.592,870.035C593.818,871.28 587.446,872.561 580.681,873.73C573.845,874.273 567.401,874.927 560.558,875.491C553.776,875.652 547.395,875.904 540.551,876.069C533.722,876.034 527.355,876.084 520.528,876.044C513.729,875.867 507.389,875.782 500.624,875.504C493.444,874.797 486.688,874.284 479.551,873.571C473.153,872.103 467.137,870.834 460.833,869.356C454.101,867.259 447.657,865.371 440.924,863.288C437.435,862.029 434.235,860.964 430.825,859.623C420.79,855.057 410.965,850.768 400.909,846.247C387.464,838.312 374.25,830.608 360.908,822.639C359.951,821.869 359.122,821.365 358.147,820.551C352.393,815.696 346.785,811.151 341.026,806.324C338.933,804.355 336.991,802.666 334.935,800.662C330.203,795.924 325.585,791.502 320.833,786.779C318.845,784.631 316.991,782.785 315.047,780.611C310.34,775.113 305.723,769.942 301.028,764.47C300.005,763.097 299.06,762.026 298.034,760.618C289.618,746.861 281.282,733.439 272.914,719.66C267.275,706.527 261.668,693.751 256.08,680.588C253.975,673.794 251.851,667.389 249.762,660.602C248.222,653.811 246.648,647.401 245.133,640.553C244.224,632.868 243.357,625.605 242.2,618.388C241.986,617.057 240.856,615.246 239.704,614.796C233.539,612.389 227.234,610.344 220.679,607.959C214.029,605.374 207.678,603.003 201.094,600.374C195.075,597.66 189.289,595.204 183.268,592.474C176.092,588.663 169.152,585.126 162.099,581.39C161.744,580.968 161.46,580.883 160.977,580.634C154.277,576.076 147.734,571.821 141.013,567.294C137.981,564.971 135.128,562.919 132.134,560.555C128.368,557.409 124.744,554.575 120.973,551.447C116.952,547.738 113.077,544.322 109.09,540.584C106.358,537.76 103.737,535.256 100.989,532.45C97.331,528.389 93.799,524.632 90.177,520.542C87.098,516.72 84.11,513.232 81.033,509.424C78.773,506.339 76.6,503.574 74.34,500.464C69.931,493.665 65.608,487.212 61.219,480.41C57.572,473.667 53.991,467.271 50.23,460.536C47.421,454.439 44.792,448.682 42.193,442.633C41.929,441.864 41.633,441.387 41.316,440.528C38.872,433.762 36.449,427.379 34.053,420.603C32.066,413.469 30.053,406.728 28.059,399.582C26.689,393.121 25.299,387.064 23.978,380.578C23.347,375.437 22.648,370.726 21.949,366.015C21.935,364.623 21.921,363.231 21.812,361.43C21.498,354.643 21.28,348.265 20.963,341.437M314.112,549.713C316.398,550.389 318.685,551.065 321.869,551.962C328.568,551.27 335.267,550.578 342.771,550.005C343.829,549.806 344.887,549.607 346.472,549.627C346.981,549.415 347.489,549.204 348.81,549.079C349.854,548.83 350.898,548.581 352.463,548.51C352.969,548.32 353.475,548.131 354.773,548.009C356.826,547.505 358.879,547.001 361.695,546.564C366.794,545.035 371.894,543.506 377.7,542.007C378.791,541.585 379.882,541.163 381.712,540.747C388.22,538.109 394.729,535.472 402.014,532.784C405.914,530.912 409.991,529.336 413.678,527.111C422.88,521.56 431.903,515.714 441.696,510.167C445.498,507.127 449.3,504.087 453.733,500.841C456.169,498.59 458.604,496.339 461.688,493.894C465.79,489.595 469.893,485.297 474.606,480.726C476.739,478.155 478.872,475.583 481.635,472.776C484.512,468.891 487.389,465.006 490.828,460.775C498.409,447.563 505.989,434.351 514.016,420.648C516.48,414.132 518.944,407.615 521.527,400.944C521.527,400.944 521.566,400.753 522.024,400.193C522.36,398.796 522.695,397.399 523.442,395.425C523.923,393.607 524.403,391.788 525.214,389.528C525.323,389.001 525.431,388.473 525.886,387.22C527.477,380.31 529.068,373.399 530.802,365.865C526.857,366.083 523.942,366.244 520.128,366.157C513.086,366.775 506.045,367.393 498.16,367.904C492.449,369.071 486.738,370.238 480.27,371.316C466.835,376.179 453.4,381.041 439.241,385.96C430.418,390.944 421.594,395.929 412.092,400.995C408.379,403.627 404.666,406.26 400.269,409.004C395.445,412.971 390.62,416.938 385.184,421.101C383.801,422.427 382.417,423.753 380.385,425.246C375.461,430.438 370.537,435.629 365.051,441.113C363.63,442.924 362.21,444.735 360.163,446.836C356.824,451.576 353.485,456.315 349.601,461.463C342.484,474.603 335.367,487.743 327.833,501.368C323.393,514.921 318.954,528.474 314.151,542.712C314.108,543.477 314.064,544.241 313.664,545.498C313.802,546.657 313.939,547.816 314.112,549.713M360.219,618.133C357.151,618.771 354.083,619.408 350.155,619.918C348.455,620.198 346.755,620.478 344.403,620.505C343.267,620.721 342.132,620.937 340.133,621.015C331.422,621.35 322.71,621.685 313.376,621.93C313.276,622.285 313.176,622.639 312.946,623.811C316.004,635.195 319.063,646.579 322.078,658.617C322.436,659.407 322.794,660.197 323.122,661.718C326.087,668.476 329.052,675.235 332.058,682.717C334.998,687.954 337.939,693.191 340.875,698.973C341.39,699.698 341.905,700.423 342.586,701.864C348.731,710.222 354.876,718.58 361.197,727.593C365.402,732.091 369.607,736.59 374.006,741.739C376.322,743.86 378.637,745.982 381.23,748.707C386.329,752.858 391.427,757.009 396.879,761.757C404.916,767.09 412.953,772.423 421.468,778.266C423.952,779.574 426.436,780.883 429.322,782.738C433.199,784.542 437.075,786.345 441.373,788.695C447.853,791.28 454.333,793.865 461.385,796.873C467.262,798.567 473.14,800.261 479.582,802.495C493.383,803.709 507.184,804.922 521.748,806.452C528.185,806.35 534.622,806.248 541.957,806.41C548.302,805.977 554.647,805.543 561.777,805.314C562.852,805.206 563.927,805.098 565.356,805.258C565.893,805.109 566.43,804.961 567.73,804.865C569.484,804.597 571.237,804.328 573.342,804.347C573.885,804.177 574.428,804.008 575.761,803.866C576.785,803.645 577.809,803.424 579.371,803.452C579.904,803.247 580.437,803.043 581.618,802.847C582.033,802.739 582.448,802.63 583.431,802.683C583.948,802.425 584.465,802.166 585.757,801.9C590.837,800.245 595.917,798.591 601.742,796.979C613.317,791.694 624.893,786.409 637.125,781.102C638.42,780.286 639.715,779.47 641.666,778.538C650.099,772.688 658.533,766.838 667.628,760.835C672.103,756.93 676.578,753.025 681.702,748.928C684.228,746.327 686.754,743.726 689.888,740.875C693.628,736.658 697.367,732.441 701.728,727.972C703.475,725.644 705.222,723.315 707.549,720.653C711.981,714.106 716.413,707.558 721.161,700.874C721.161,700.874 721.123,700.532 721.72,700.119C725.083,693.75 728.447,687.381 732.311,680.498C734.938,674.026 737.565,667.554 740.662,660.681C740.932,659.694 741.202,658.708 741.939,657.168C742.828,654.095 743.716,651.022 744.943,647.285C745.249,645.846 745.555,644.406 746.197,642.524C746.255,641.993 746.314,641.461 746.749,640.339C746.771,639.878 746.794,639.416 747.153,638.516C747.167,637.985 747.181,637.455 747.597,636.256C747.657,635.486 747.717,634.715 748.134,633.522C748.121,632.99 748.108,632.459 748.458,631.19C748.565,630.108 748.671,629.026 749.102,627.654C749.077,627.1 749.052,626.546 749.307,625.32C749.448,623.888 749.59,622.456 750.052,620.239C750.571,613.81 751.09,607.381 751.831,600.045C751.867,593.698 751.902,587.352 752.185,580.097C751.915,574.407 751.645,568.717 751.615,562.518C751.449,562.002 751.283,561.486 751.259,560.083C750.202,553.719 749.145,547.354 748.28,540.17C744.053,527.065 739.826,513.96 735.505,500.088C731.08,492.026 726.656,483.963 722.162,475.162C719.358,470.453 716.554,465.745 713.63,460.379C709.487,455.108 705.343,449.837 700.981,443.999C700.004,442.992 699.026,441.986 697.883,440.322C692.293,434.799 686.703,429.276 680.875,423.192C679.928,422.456 678.982,421.72 677.768,420.368C672.233,416.126 666.698,411.884 660.797,407.096C657.432,404.924 654.067,402.752 650.298,400.009C647.216,398.303 644.133,396.596 640.64,394.342C634.422,391.243 628.205,388.144 621.56,384.499C618.044,382.988 614.528,381.477 610.544,379.445C601.122,375.964 600.229,376.571 597.744,386.349C594.813,397.886 591.577,409.346 588.073,421.408C585.783,427.934 583.493,434.459 580.718,441.454C580.465,442.298 580.212,443.141 579.458,444.467C576.902,450.286 574.346,456.105 571.223,462.299C567.961,468.45 564.7,474.602 561.086,480.976C560.891,481.204 560.824,481.465 560.293,482.115C556.242,488.427 552.192,494.74 547.599,501.451C545.358,504.547 543.116,507.643 540.257,511.011C537.583,514.354 534.908,517.697 531.657,521.406C526.134,527.39 520.611,533.374 514.469,539.536C509.997,543.796 505.525,548.056 500.429,552.494C497.207,555.291 493.986,558.087 490.134,561.094C487.097,563.449 484.061,565.805 480.351,568.257C474.563,572.16 468.776,576.063 462.394,580.012C461.941,580.373 461.488,580.735 460.331,581.148C453.875,584.728 447.42,588.308 440.224,591.92C434.473,594.591 428.721,597.261 422.368,599.897C421.893,600.205 421.418,600.512 420.177,600.869C413.786,603.261 407.396,605.654 400.228,607.981C393.497,610.024 386.766,612.067 379.239,614.047C373.165,615.442 367.092,616.836 360.219,618.133M357.542,114.709C357,114.696 356.457,114.683 355.191,114.304C354.117,114.244 353.043,114.185 351.439,113.747C350.597,113.732 349.755,113.717 348.142,113.363C346.746,113.287 345.351,113.211 343.242,112.761C335.804,112.328 328.367,111.894 320.032,111.209C313.695,111.223 307.358,111.237 300.115,111.036C296.425,111.279 292.734,111.522 288.345,111.518C286.9,111.689 285.456,111.86 283.246,111.879C282.491,112.023 281.736,112.168 280.158,112.142C276.461,112.708 272.764,113.274 268.558,113.628C268.056,113.811 267.554,113.994 266.283,114.096C264.539,114.537 262.795,114.979 260.498,115.319C260.006,115.568 259.513,115.817 258.339,116.011C257.909,116.144 257.48,116.278 256.497,116.331C256.007,116.582 255.516,116.834 254.312,117.059C253.898,117.272 253.484,117.484 252.358,117.603C249.915,118.435 247.472,119.268 244.323,120.069C243.226,120.48 242.129,120.891 240.306,121.316C233.827,124.012 227.347,126.708 220.119,129.52C207.085,137.36 194.051,145.201 180.386,153.104C179.8,153.678 179.214,154.253 178.23,154.903C178.23,154.903 178.042,155.263 177.399,155.385C175.239,157.244 173.08,159.103 170.295,161.196C167.158,164.045 164.021,166.894 160.236,169.959C156.735,173.599 153.234,177.24 149.142,181.163C146.412,184.407 143.681,187.651 140.319,191.141C137.876,194.426 135.433,197.711 132.42,201.346C124.742,214.517 117.063,227.689 108.943,241.345C106.466,247.83 103.989,254.315 101.134,261.319C100.839,262.564 100.544,263.809 99.753,265.587C98.469,270.718 97.185,275.849 95.494,281.489C95.368,282.336 95.242,283.183 94.742,284.454C94.71,284.994 94.678,285.535 94.281,286.75C94.224,287.509 94.166,288.269 93.728,289.449C93.742,289.992 93.756,290.535 93.416,291.812C93.326,292.887 93.235,293.962 92.825,295.34C92.864,295.899 92.902,296.459 92.669,297.758C92.6,298.798 92.531,299.837 92.116,301.594C91.796,308.068 91.475,314.543 90.987,321.939C91.037,328.287 91.086,334.636 90.956,341.904C91.382,348.275 91.808,354.646 92.081,361.832C93.176,368.211 94.272,374.59 95.317,381.731C96.888,386.817 98.458,391.904 100,397.695C100.423,398.787 100.845,399.878 101.224,401.709C103.921,408.182 106.617,414.655 109.457,421.893C117.2,434.978 124.943,448.063 132.849,461.83C135.566,465.22 138.283,468.611 141.203,472.64C143.754,475.448 146.305,478.256 149.045,481.715C152.99,485.565 156.935,489.414 161.135,493.869C163.999,496.29 166.864,498.71 170.018,501.751C173.69,504.42 177.362,507.088 181.478,510.291C187.598,513.891 193.718,517.491 200.155,521.626C200.724,521.852 201.294,522.079 202.251,522.85C208.172,525.887 214.094,528.924 220.44,532.5C226.438,535.191 232.41,537.943 238.447,540.542C240.858,541.58 243.121,541.748 243.543,537.438C244.891,532.005 246.239,526.572 247.934,520.524C249.599,514.013 251.265,507.503 253.325,500.37C255.328,494.434 257.331,488.497 259.841,482.003C260.656,479.052 261.471,476.102 262.982,473.078C264.377,469.482 265.772,465.885 267.875,462.165C271.631,455.131 275.388,448.096 279.685,440.691C280.5,439.14 281.315,437.589 282.723,435.731C285.818,430.822 288.914,425.913 292.578,420.652C297.419,414.113 302.261,407.575 307.72,400.787C323.403,381.94 341.403,365.565 361.652,350.752C366.175,347.536 370.697,344.32 375.861,340.982C377.63,339.792 379.4,338.601 381.885,337.284C394.963,330.664 408.042,324.045 421.883,317.288C428.258,314.876 434.632,312.465 441.798,310.204C454.868,306.771 467.939,303.339 481.829,299.987C488.214,298.944 494.6,297.9 501.898,297.044C508.268,296.669 514.637,296.294 521.907,296.178L530.904,296.178C529.04,288.363 527.331,281.2 525.714,273.484C525.455,272.996 525.196,272.508 524.976,271.273C524.488,269.865 523.999,268.457 523.567,266.372C522.994,264.93 522.421,263.488 521.91,261.452C521.647,260.948 521.385,260.445 521.174,259.173C518.693,253.111 516.213,247.048 513.683,240.284C509.817,233.178 505.951,226.072 502.001,218.264C498.059,212.482 494.117,206.699 490.039,200.234C487.092,196.686 484.146,193.138 480.974,188.98C478.453,186.253 475.932,183.526 473.194,180.144C469.176,176.334 465.158,172.524 460.923,168.203C460.335,167.777 459.747,167.351 458.976,166.339C458.311,165.907 457.647,165.474 456.667,164.479C455.149,163.301 453.631,162.123 451.837,160.328C448.303,157.715 444.77,155.102 440.85,151.968C427.614,144.398 414.377,136.828 400.681,128.806C394.114,126.266 387.547,123.726 380.433,120.829C379.609,120.615 378.784,120.402 377.426,119.701C371.927,118.288 366.428,116.876 360.235,115.165C359.485,115.132 358.734,115.098 357.542,114.709Z" style="fill:rgb(1,1,1);fill-rule:nonzero;"/>
    </g>
</svg>
